<svg xmlns="http://www.w3.org/2000/svg" viewBox="0 0 32 32">
  <defs>
    <linearGradient id="fg" x1="0%" y1="0%" x2="100%" y2="100%">
      <stop offset="0%" stop-color="#E8792F"/>
      <stop offset="100%" stop-color="#F5A623"/>
    </linearGradient>
  </defs>
  <rect width="32" height="32" rx="6" fill="#0D1B2A"/>
  <path d="M16 4 C12 8, 8 10, 7 16 C6 20, 8 24, 12 26 C13 24, 12 20, 14 17 C15 20, 14 24, 16 28 C18 24, 17 20, 18 17 C20 20, 19 24, 20 26 C24 24, 26 20, 25 16 C24 10, 20 8, 16 4Z" fill="url(#fg)" opacity="0.95"/>
  <path d="M16 8 C14 11, 12 13, 11 16 C10.5 18, 11 20, 13 22 C13.5 20, 13 18, 14.5 16 C15 18, 14.5 20, 16 23 C17.5 20, 17 18, 17.5 16 C19 18, 18.5 20, 19 22 C21 20, 21.5 18, 21 16 C20 13, 18 11, 16 8Z" fill="#FFF" opacity="0.25"/>
</svg>
